# xmcd
#
# Track frame offsets:
#	183
#	14080
#	27583
#	37733
#	47300
#	57508
#	69863
#	81393
#	90993
#	105993
#	116033
#	128658
#	137870
#	144195
#	155935
#	167023
#	178605
#	189125
#	200870
#	216703
#
# Disc length: 3049 seconds
# Revision: 2
# Processed by: cddbd v1.5.2PL0 Copyright (c) Steve Scherf et al.
# Submitted via: dBpowerAMP V12.0
#
DISCID=1b0be714
DTITLE=Various Artist - Louisiana Swamp Blues (Flyright)
DYEAR=1989
DGENRE=Blues
TTITLE0=Slim Harpo - I'm A King Bee
TTITLE1=Buddy Guy - I Hope You Come Back Home
TTITLE2=Lightning Slim - I'm Warning You Baby
TTITLE3=Lonesome Sundown - Gonna Stick To You Baby
TTITLE4=Lazy Lester - I'm A Lover Not A Fighter
TTITLE5=Lazy Lester - Sugar Coated Love
TTITLE6=Katie Webster and Ashton Savoy - Baby Baby
TTITLE7=Jimmy Anderson - Naggin'
TTITLE8=Joe Johnson - Almonia Blues
TTITLE9=Sylvester Buckley - Mumblin' Blues
TTITLE10=Clarence Garlow - Foggy Blues
TTITLE11=Boogie Jake - Early In The Morning
TTITLE12=Silas Hogan - My Baby Walked Out
TTITLE13=Whispering Smith - Baby Left Me This Morning
TTITLE14=Mr Calhoun - Hey Mattie
TTITLE15=Rambling Hi Harris - Early One Morning
TTITLE16=Leroy Washington - Wild Cherry
TTITLE17=Tabby Thomas - Hoodoo Party
TTITLE18=Henry Gray - Midnight Dream
TTITLE19=Slim Harpo - Little Queen Bee
EXTD=
EXTT0=
EXTT1=
EXTT2=
EXTT3=
EXTT4=
EXTT5=
EXTT6=
EXTT7=
EXTT8=
EXTT9=
EXTT10=
EXTT11=
EXTT12=
EXTT13=
EXTT14=
EXTT15=
EXTT16=
EXTT17=
EXTT18=
EXTT19=
PLAYORDER=
